<svg width="352" height="76" viewBox="0 0 352 76" fill="none" xmlns="http://www.w3.org/2000/svg">
<path d="M32.2117 1.65218C33.2678 1.54892 34.0071 2.27174 34.0071 2.99457V16.625C34.0071 17.3478 33.3734 17.7609 32.6341 17.7609C31.8948 17.7609 31.2612 17.3478 31.1556 16.7283C30.7331 10.5326 30.8387 4.75 21.4392 4.75H15.2081C13.7296 4.75 12.9903 5.78261 12.9903 6.91848V33.5598C12.9903 34.4891 13.5183 35.212 14.6801 35.212H22.8122C27.776 35.212 27.776 30.5652 27.8816 27.4674C27.8816 26.8478 28.4096 26.3315 29.2545 26.3315C29.9938 26.3315 30.5219 26.8478 30.5219 27.4674V46.6739C30.5219 47.2935 29.9938 47.8098 29.2545 47.8098C28.4096 47.8098 27.8816 47.2935 27.8816 46.6739C27.8816 43.2663 28.1984 37.8967 22.7066 37.8967H14.6801C13.5183 37.8967 12.9903 38.6196 12.9903 39.5489V61.5435C12.9903 65.5707 12.7791 70.2174 18.1653 70.837C19.2214 71.0435 19.8551 71.663 19.8551 72.4891C19.8551 73.5217 19.0102 74.2446 17.7428 74.2446C15.3137 74.038 12.3566 74.1413 10.0331 74.1413C7.60407 74.1413 4.75254 74.1413 2.32347 74.2446C0.950508 74.3478 0.105612 73.5217 0.105612 72.5924C0.105612 71.7663 0.633672 71.0435 1.7954 70.837C7.18162 70.2174 7.07601 65.6739 7.07601 61.5435V13.7337C7.07601 9.60327 7.28723 5.47283 1.7954 4.95653C0.739284 4.85327 0 4.13044 0 3.30435C0 2.375 0.844896 1.65218 2.11224 1.65218C6.86478 1.75544 11.4061 1.8587 16.6867 1.8587C21.9673 1.8587 27.2479 1.75544 32.2117 1.65218Z" fill="#050618"/>
<path d="M74.5695 57.8261C75.6256 57.8261 76.1537 58.5489 75.9425 59.375C75.3088 62.5761 73.8302 69.5978 73.3022 72.7989C73.091 73.7283 72.2461 74.3478 70.9787 74.3478C65.4869 74.2446 63.6915 74.1413 58.1997 74.1413C52.7078 74.1413 46.7936 74.2446 41.3017 74.3478C40.14 74.3478 39.4007 73.625 39.4007 72.6957C39.4007 71.9728 39.9288 71.25 40.9849 71.0435C46.0543 70.4239 46.3711 65.5707 46.3711 61.1304V14.1467C46.3711 10.1196 46.4767 5.67935 41.1961 5.05978C40.0344 4.95653 39.5063 4.2337 39.5063 3.40761C39.5063 2.47827 40.3512 1.65218 41.6186 1.75544C44.0476 1.8587 47.0048 1.8587 49.3283 1.8587C51.6517 1.8587 54.6089 1.96196 57.0379 1.75544C58.3053 1.75544 59.1502 2.47827 59.1502 3.40761C59.1502 4.2337 58.6221 4.95653 57.4604 5.05978C52.2854 5.67935 52.2854 10.1196 52.2854 14.1467V61.75C52.2854 68.9783 54.0808 71.4565 60.84 71.4565C70.6619 71.4565 71.6124 65.3641 73.091 58.962C73.3022 58.3424 73.8302 57.8261 74.5695 57.8261Z" fill="#050618"/>
<path d="M144.959 39.962C144.642 23.6467 133.342 3.20109 112.008 3.51087C91.5194 3.82065 82.648 20.2391 82.9649 35.8315C83.2817 52.1467 94.1597 72.2826 115.177 72.2826C115.388 72.2826 115.599 72.2826 115.81 72.2826C136.827 71.9728 145.276 55.8641 144.959 39.962ZM151.613 37.587C151.613 57.5163 135.454 75.8967 113.909 75.8967C93.1036 75.8967 76.5225 58.2391 76.5225 38.3098C76.5225 18.3804 92.3643 0 114.226 0C134.82 0 151.613 17.8641 151.613 37.587Z" fill="#050618"/>
<path d="M223.869 3.40761C223.975 4.2337 223.447 4.95653 222.497 5.2663C219.434 6.40218 218.483 10.0163 217.216 14.3533L200.846 75.0707C200.74 75.587 200.212 76 199.473 76C198.839 76 198.311 75.587 198.1 75.0707L189.546 46.9837C189.334 46.5707 188.595 46.4674 188.384 46.9837L178.879 75.1739C178.668 75.6902 178.139 76 177.506 76C176.767 76 176.238 75.587 176.027 75.0707L157.756 13.1141C156.806 9.91304 155.644 5.98913 151.314 5.2663C150.364 5.05979 149.73 4.44022 149.73 3.51087C149.73 2.58153 150.575 1.75544 151.948 1.8587C154.271 1.96196 157.545 1.96196 158.918 1.96196C161.03 1.96196 163.354 1.8587 165.466 1.75544C166.839 1.75544 167.578 2.58153 167.578 3.51087C167.578 4.2337 167.156 5.05979 166.205 5.2663C162.403 5.88587 163.143 9.70653 164.093 12.8043L178.245 62.3696C178.456 62.9891 179.301 62.9891 179.512 62.3696L186.8 40.5815C187.011 39.8587 187.011 39.0326 186.8 38.3098L179.196 13.3207C178.245 10.2228 177.189 6.09239 172.859 5.2663C171.908 5.05979 171.38 4.44022 171.38 3.51087C171.38 2.58153 172.225 1.75544 173.598 1.8587C175.71 1.96196 178.245 1.96196 180.146 1.96196C181.625 1.96196 184.054 1.96196 185.955 1.8587C187.222 1.8587 188.067 2.58153 188.067 3.61413C188.067 4.33696 187.645 4.95653 186.8 5.2663C183.314 6.09239 184.582 10.4293 185.532 13.1141L189.862 27.7772C189.968 28.2935 190.813 28.2935 190.919 27.7772L195.777 13.6304C196.938 10.0163 198.1 5.88587 193.664 5.16304C192.608 5.05978 192.08 4.33696 192.08 3.51087C192.08 2.58153 192.925 1.8587 194.192 1.8587C195.882 1.96196 198.1 1.96196 199.262 1.96196C200.529 1.96196 202.325 1.8587 203.698 1.8587C205.071 1.75544 205.915 2.58153 205.915 3.71739C205.915 4.44022 205.387 5.05978 204.648 5.36957C201.48 6.40218 200.107 11.3587 199.367 13.6304L192.503 34.3859C192.291 35.1087 192.291 35.9348 192.503 36.6576L199.79 61.2337C199.896 61.75 200.846 61.8533 200.952 61.2337L213.625 14.25C214.681 10.5326 215.737 5.98913 211.513 5.2663C210.457 5.05979 209.929 4.33696 209.929 3.40761C210.034 2.47827 210.879 1.8587 212.147 1.8587C213.731 1.96196 215.843 1.96196 217.005 1.96196C218.166 1.96196 220.173 1.8587 221.652 1.8587C222.708 1.75544 223.658 2.375 223.869 3.40761Z" fill="#050618"/>
<path d="M300.397 3.40761C300.503 4.2337 299.975 4.95653 299.024 5.2663C295.961 6.40218 295.011 10.0163 293.743 14.3533L277.374 75.0707C277.268 75.587 276.74 76 276.001 76C275.367 76 274.839 75.587 274.628 75.0707L266.073 46.9837C265.862 46.5707 265.123 46.4674 264.911 46.9837L255.406 75.1739C255.195 75.6902 254.667 76 254.033 76C253.294 76 252.766 75.587 252.555 75.0707L234.284 13.1141C233.333 9.91304 232.172 5.98913 227.841 5.2663C226.891 5.05979 226.257 4.44022 226.257 3.51087C226.257 2.58153 227.102 1.75544 228.475 1.8587C230.799 1.96196 234.073 1.96196 235.446 1.96196C237.558 1.96196 239.881 1.8587 241.993 1.75544C243.366 1.75544 244.106 2.58153 244.106 3.51087C244.106 4.2337 243.683 5.05979 242.733 5.2663C238.931 5.88587 239.67 9.70653 240.621 12.8043L254.773 62.3696C254.984 62.9891 255.829 62.9891 256.04 62.3696L263.327 40.5815C263.538 39.8587 263.538 39.0326 263.327 38.3098L255.723 13.3207C254.773 10.2228 253.716 6.09239 249.386 5.2663C248.436 5.05979 247.908 4.44022 247.908 3.51087C247.908 2.58153 248.753 1.75544 250.126 1.8587C252.238 1.96196 254.773 1.96196 256.674 1.96196C258.152 1.96196 260.581 1.96196 262.482 1.8587C263.75 1.8587 264.594 2.58153 264.594 3.61413C264.594 4.33696 264.172 4.95653 263.327 5.2663C259.842 6.09239 261.109 10.4293 262.06 13.1141L266.39 27.7772C266.495 28.2935 267.34 28.2935 267.446 27.7772L272.304 13.6304C273.466 10.0163 274.628 5.88587 270.192 5.16304C269.136 5.05978 268.608 4.33696 268.608 3.51087C268.608 2.58153 269.453 1.8587 270.72 1.8587C272.41 1.96196 274.628 1.96196 275.789 1.96196C277.057 1.96196 278.852 1.8587 280.225 1.8587C281.598 1.75544 282.443 2.58153 282.443 3.71739C282.443 4.44022 281.915 5.05978 281.176 5.36957C278.007 6.40218 276.634 11.3587 275.895 13.6304L269.03 34.3859C268.819 35.1087 268.819 35.9348 269.03 36.6576L276.317 61.2337C276.423 61.75 277.374 61.8533 277.479 61.2337L290.153 14.25C291.209 10.5326 292.265 5.98913 288.04 5.2663C286.984 5.05979 286.456 4.33696 286.456 3.40761C286.562 2.47827 287.407 1.8587 288.674 1.8587C290.258 1.96196 292.37 1.96196 293.532 1.96196C294.694 1.96196 296.701 1.8587 298.179 1.8587C299.235 1.75544 300.186 2.375 300.397 3.40761Z" fill="#050618"/>
<path d="M349.888 1.75544C351.261 1.65218 352 2.47827 352 3.51087C352 4.33696 351.472 4.95653 350.627 5.2663C347.775 6.19565 346.297 9.39674 345.241 11.462L331.722 37.0707C331.406 37.6902 331.194 38.413 331.194 39.1359V62.0598C331.194 66.087 330.983 70.2174 336.369 70.9402C337.426 71.0435 338.059 71.7663 338.059 72.5924C337.954 73.625 337.003 74.2446 335.947 74.2446C333.412 74.1413 330.666 74.1413 328.132 74.1413C325.703 74.1413 323.168 74.1413 320.739 74.2446C319.577 74.2446 318.627 73.625 318.521 72.5924C318.521 71.7663 319.155 71.0435 320.211 70.9402C325.703 70.2174 325.28 66.087 325.28 62.0598V40.6848C325.28 39.962 325.175 39.2391 324.752 38.6196L310.811 11.0489C309.333 8.36413 308.065 5.78261 304.369 5.2663C303.418 5.05979 302.785 4.44022 302.785 3.51087C302.785 2.58153 303.63 1.8587 304.897 1.8587C307.96 1.96196 309.122 1.96196 311.656 1.96196C313.768 1.96196 316.937 1.96196 318.31 1.75544C319.788 1.54892 320.844 2.27174 320.844 3.40761C320.844 4.2337 320.211 4.85327 319.26 5.05978C315.669 5.57609 315.775 7.6413 317.465 10.7391L328.871 32.837C329.082 33.25 329.927 33.3533 330.244 32.837L342.072 10.4293C343.973 7.22827 343.762 5.36957 340.066 5.05978C338.904 4.95653 338.376 4.2337 338.376 3.40761C338.376 2.47827 339.221 1.65218 340.383 1.75544C341.861 1.8587 343.551 1.8587 345.135 1.8587C346.508 1.8587 348.409 1.8587 349.888 1.75544Z" fill="#050618"/>
</svg>
